<svg xmlns="http://www.w3.org/2000/svg" xmlns:xlink="http://www.w3.org/1999/xlink" width="250" height="190" viewBox="0 0 250 190"><defs><clipPath id="a"><rect width="221.634" height="182" fill="none"/></clipPath></defs><g transform="translate(-6428 13224)"><rect width="250" height="190" transform="translate(6428 -13224)" fill="none"/><g transform="translate(6442 -13220)"><g clip-path="url(#a)"><path d="M478.269,89.289a2.336,2.336,0,0,0-2.341,2.335l.006,4.271a2.975,2.975,0,0,1-2.2,2.861,31.369,31.369,0,0,0-6.208,2.462,2.987,2.987,0,0,1-3.5-.515l-2.981-2.968a2.347,2.347,0,0,0-3.31,0l-6.937,6.909a2.325,2.325,0,0,0,0,3.3l3,2.989a2.937,2.937,0,0,1,.548,3.43,33.383,33.383,0,0,0-2.481,6.239A2.957,2.957,0,0,1,449,122.737l-4.289-.012a2.336,2.336,0,0,0-2.347,2.334l.008,9.575a2.336,2.336,0,0,0,2.345,2.33l4.9-.008a2.983,2.983,0,0,1,2.821,2.021A31.654,31.654,0,0,0,455,144.559a2.93,2.93,0,0,1-.446,3.56l-3.762,3.746a2.325,2.325,0,0,0,0,3.3l6.784,6.757a2.348,2.348,0,0,0,3.31,0l4.335-4.318a3,3,0,0,1,3.409-.564,30.406,30.406,0,0,0,5.063,1.874,2.972,2.972,0,0,1,2.21,2.855l.007,6.251a2.336,2.336,0,0,0,2.34,2.329l4.141,0V89.288Zm-9.712,52.82a18.918,18.918,0,0,1,13.431-32.3v37.836a18.976,18.976,0,0,1-13.432-5.541" transform="translate(-337.056 -68.118)" fill="#c5e8f6"/><path d="M146.324,4.728H9.067A3.682,3.682,0,0,0,5.318,8.392V18.6H150.073V8.392a3.682,3.682,0,0,0-3.749-3.664m-133.3,9.058A2.463,2.463,0,1,1,15.5,11.323a2.468,2.468,0,0,1-2.473,2.463m9.946,0a2.463,2.463,0,1,1,2.473-2.463,2.468,2.468,0,0,1-2.473,2.463" transform="translate(-4.052 -3.607)" fill="#fcd118"/><path d="M683.833,359.873H615.858v16.883h73.968V365.842a5.981,5.981,0,0,0-5.993-5.969" transform="translate(-469.247 -274.547)" fill="#f7cb16"/><path d="M141.333,111.526H5.689A5.653,5.653,0,0,1,0,105.923V5.222A5.248,5.248,0,0,1,5.263,0H141.8a5.186,5.186,0,0,1,5.2,5.157V105.944a5.634,5.634,0,0,1-5.673,5.582M5.263,2.1A3.14,3.14,0,0,0,2.11,5.222v100.7a3.545,3.545,0,0,0,3.579,3.5H141.333a3.526,3.526,0,0,0,3.563-3.48V5.157A3.077,3.077,0,0,0,141.8,2.1Z" fill="#1e243a"/><path d="M132.207,60.6H1.941a1.051,1.051,0,1,1,0-2.1H132.207a1.051,1.051,0,1,1,0,2.1" transform="translate(-0.675 -44.631)" fill="#1e243a"/><path d="M108.6,17.713a1.053,1.053,0,0,1-1.055-1.051V4.893a1.055,1.055,0,0,1,2.11,0V16.662a1.053,1.053,0,0,1-1.055,1.051" transform="translate(-81.945 -2.931)" fill="#1e243a"/><path d="M26.418,24.751a3.514,3.514,0,1,1,3.528-3.514,3.525,3.525,0,0,1-3.528,3.514m0-4.926a1.412,1.412,0,1,0,1.418,1.412,1.416,1.416,0,0,0-1.418-1.412" transform="translate(-17.441 -13.522)" fill="#1e243a"/><path d="M68.2,24.751a3.514,3.514,0,1,1,3.528-3.514A3.525,3.525,0,0,1,68.2,24.751m0-4.926a1.412,1.412,0,1,0,1.418,1.412A1.416,1.416,0,0,0,68.2,19.826" transform="translate(-49.273 -13.522)" fill="#1e243a"/><path d="M209.176,21.012H131.945a1.051,1.051,0,1,1,0-2.1h77.231a1.051,1.051,0,1,1,0,2.1" transform="translate(-99.73 -14.426)" fill="#1e243a"/><path d="M173.444,41.694h-41.5a1.051,1.051,0,1,1,0-2.1h41.5a1.051,1.051,0,1,1,0,2.1" transform="translate(-99.73 -30.205)" fill="#1e243a"/><path d="M595.144,60.6H590.5a1.051,1.051,0,1,1,0-2.1h4.642a1.051,1.051,0,1,1,0,2.1" transform="translate(-449.123 -44.631)" fill="#1e243a"/><path d="M544.63,211.362a19.969,19.969,0,1,1,0-39.938,1.051,1.051,0,1,1,0,2.1,17.868,17.868,0,1,0,0,35.735,1.051,1.051,0,1,1,0,2.1" transform="translate(-399.698 -130.779)" fill="#1e243a"/><path d="M479.017,168.019h0l-4.141,0a3.394,3.394,0,0,1-3.395-3.379l-.007-6.25a1.93,1.93,0,0,0-1.433-1.843,31.613,31.613,0,0,1-5.239-1.939,1.947,1.947,0,0,0-2.208.359l-4.335,4.318a3.41,3.41,0,0,1-4.8,0l-6.784-6.757a3.373,3.373,0,0,1,0-4.783L450.433,144a1.889,1.889,0,0,0,.279-2.29,32.7,32.7,0,0,1-2.649-5.769,1.932,1.932,0,0,0-1.818-1.311h0l-4.9.008h-.005a3.389,3.389,0,0,1-3.4-3.379l-.008-9.575a3.389,3.389,0,0,1,3.4-3.385h.009l4.289.012h.005a1.907,1.907,0,0,0,1.838-1.372,34.252,34.252,0,0,1,2.559-6.437,1.881,1.881,0,0,0-.357-2.205l-3-2.989a3.373,3.373,0,0,1,0-4.783l6.937-6.909a3.405,3.405,0,0,1,4.8,0l2.981,2.969a1.923,1.923,0,0,0,2.263.329,32.482,32.482,0,0,1,6.418-2.545,1.934,1.934,0,0,0,1.429-1.847l-.006-4.271a3.389,3.389,0,0,1,3.4-3.387h4.124a1.051,1.051,0,1,1,0,2.1h-4.124a1.284,1.284,0,0,0-1.286,1.282l.006,4.271a4.043,4.043,0,0,1-2.972,3.874,30.365,30.365,0,0,0-6,2.379,4.029,4.029,0,0,1-4.741-.7L456.92,95.1a1.289,1.289,0,0,0-1.818,0L448.164,102a1.277,1.277,0,0,0,0,1.811l3,2.989a3.969,3.969,0,0,1,.74,4.655,32.16,32.16,0,0,0-2.4,6.042,4.022,4.022,0,0,1-3.869,2.9h-.011l-4.289-.012h0a1.283,1.283,0,0,0-1.286,1.282l.008,9.574a1.284,1.284,0,0,0,1.286,1.28h0l4.9-.008h.006a4.042,4.042,0,0,1,3.814,2.73,30.591,30.591,0,0,0,2.479,5.4,3.987,3.987,0,0,1-.612,4.83l-3.762,3.746a1.277,1.277,0,0,0,0,1.811l6.784,6.757a1.291,1.291,0,0,0,1.819,0l4.335-4.317a4.067,4.067,0,0,1,4.609-.769,29.514,29.514,0,0,0,4.887,1.809,4.039,4.039,0,0,1,2.986,3.868l.007,6.25a1.285,1.285,0,0,0,1.285,1.279l4.141,0a1.051,1.051,0,1,1,0,2.1" transform="translate(-333.679 -64.737)" fill="#1e243a"/><path d="M506.782,451.593H390.772a7.164,7.164,0,0,1-7.17-7.142v-61.6a1.055,1.055,0,0,1,2.11,0v61.6a5.056,5.056,0,0,0,5.06,5.04h116.01a4.993,4.993,0,0,0,5-4.978V362.237a4.71,4.71,0,0,0-4.715-4.7H438.893a1.051,1.051,0,1,1,0-2.1h68.173a6.819,6.819,0,0,1,6.825,6.8v82.277a7.1,7.1,0,0,1-7.108,7.079" transform="translate(-292.282 -271.165)" fill="#1e243a"/><path d="M673.081,428.749H614.138a1.051,1.051,0,1,1,0-2.1h58.943a1.051,1.051,0,1,1,0,2.1" transform="translate(-467.132 -325.489)" fill="#1e243a"/><path d="M650.432,392.112H614.138a1.051,1.051,0,1,1,0-2.1h36.294a1.051,1.051,0,1,1,0,2.1" transform="translate(-467.132 -297.539)" fill="#1e243a"/><path d="M907.433,428.749h-4.924a1.051,1.051,0,1,1,0-2.1h4.924a1.051,1.051,0,1,1,0,2.1" transform="translate(-686.853 -325.489)" fill="#1e243a"/><path d="M481.485,503.8H446.316a1.051,1.051,0,1,1,0-2.1h35.169a1.051,1.051,0,1,1,0,2.1" transform="translate(-339.262 -382.743)" fill="#1e243a"/><path d="M481.485,558.752H446.316a1.051,1.051,0,1,1,0-2.1h35.169a1.051,1.051,0,1,1,0,2.1" transform="translate(-339.262 -424.669)" fill="#1e243a"/><path d="M481.485,614.89H446.316a1.051,1.051,0,1,1,0-2.1h35.169a1.051,1.051,0,1,1,0,2.1" transform="translate(-339.262 -467.496)" fill="#1e243a"/><path d="M481.485,669.846H446.316a1.051,1.051,0,1,1,0-2.1h35.169a1.051,1.051,0,1,1,0,2.1" transform="translate(-339.262 -509.422)" fill="#1e243a"/><path d="M747.991,503.8H712.822a1.051,1.051,0,1,1,0-2.1h35.169a1.051,1.051,0,1,1,0,2.1" transform="translate(-542.323 -382.743)" fill="#1e243a"/><path d="M747.991,558.752H712.822a1.051,1.051,0,1,1,0-2.1h35.169a1.051,1.051,0,1,1,0,2.1" transform="translate(-542.323 -424.669)" fill="#1e243a"/><path d="M747.991,614.89H712.822a1.051,1.051,0,1,1,0-2.1h35.169a1.051,1.051,0,1,1,0,2.1" transform="translate(-542.323 -467.496)" fill="#1e243a"/><path d="M747.991,669.846H712.822a1.051,1.051,0,1,1,0-2.1h35.169a1.051,1.051,0,1,1,0,2.1" transform="translate(-542.323 -509.422)" fill="#1e243a"/><path d="M643.684,503.8h-8.863a1.051,1.051,0,1,1,0-2.1h8.863a1.051,1.051,0,1,1,0,2.1" transform="translate(-482.891 -382.743)" fill="#1e243a"/><path d="M643.684,558.752h-8.863a1.051,1.051,0,1,1,0-2.1h8.863a1.051,1.051,0,1,1,0,2.1" transform="translate(-482.891 -424.669)" fill="#1e243a"/><path d="M643.684,614.89h-8.863a1.051,1.051,0,1,1,0-2.1h8.863a1.051,1.051,0,1,1,0,2.1" transform="translate(-482.891 -467.496)" fill="#1e243a"/><path d="M643.684,669.846h-8.863a1.051,1.051,0,1,1,0-2.1h8.863a1.051,1.051,0,1,1,0,2.1" transform="translate(-482.891 -509.422)" fill="#1e243a"/><path d="M163.635,238.559a9.773,9.773,0,1,1,9.812-9.773,9.8,9.8,0,0,1-9.812,9.773m0-17.444a7.671,7.671,0,1,0,7.7,7.671,7.7,7.7,0,0,0-7.7-7.671" transform="translate(-117.203 -167.085)" fill="#1e243a"/><path d="M122.587,209.809a1.051,1.051,0,0,1-.024-2.1,20.928,20.928,0,0,0,3.325-.342,1.051,1.051,0,1,1,.385,2.066,23.1,23.1,0,0,1-3.662.377h-.025m-6.259-.758a1.059,1.059,0,0,1-.279-.037,22.8,22.8,0,0,1-3.463-1.251,1.052,1.052,0,1,1,.878-1.911,20.668,20.668,0,0,0,3.14,1.134,1.051,1.051,0,0,1-.278,2.065m15.719-1.637a1.05,1.05,0,0,1-.485-1.985,20.8,20.8,0,0,0,2.837-1.761,1.052,1.052,0,1,1,1.257,1.689,22.932,22.932,0,0,1-3.126,1.94,1.055,1.055,0,0,1-.483.117m-24.315-2.971a1.054,1.054,0,0,1-.7-.261,22.964,22.964,0,0,1-2.565-2.631,1.053,1.053,0,0,1,1.627-1.338,20.844,20.844,0,0,0,2.329,2.389,1.051,1.051,0,0,1-.7,1.841m31.768-3.308a1.051,1.051,0,0,1-.843-1.682,20.736,20.736,0,0,0,1.784-2.813,1.054,1.054,0,0,1,1.869.975,22.793,22.793,0,0,1-1.965,3.1,1.055,1.055,0,0,1-.845.42m-37.486-4.572a1.055,1.055,0,0,1-.972-.642,22.546,22.546,0,0,1-1.153-3.487,1.055,1.055,0,0,1,2.051-.493,20.5,20.5,0,0,0,1.046,3.162,1.053,1.053,0,0,1-.972,1.46m41.444-4.314A1.055,1.055,0,0,1,142.421,191a20.693,20.693,0,0,0,.364-3.309,1.055,1.055,0,0,1,2.109.061,22.757,22.757,0,0,1-.4,3.645,1.054,1.054,0,0,1-1.035.853m-43.121-5.265h-.056a1.053,1.053,0,0,1-1-1.1,22.744,22.744,0,0,1,.487-3.635,1.055,1.055,0,0,1,2.062.445,20.646,20.646,0,0,0-.441,3.3,1.054,1.054,0,0,1-1.053,1m42.778-4.451a1.055,1.055,0,0,1-1.019-.781,20.483,20.483,0,0,0-1.12-3.136,1.054,1.054,0,0,1,1.924-.863,22.573,22.573,0,0,1,1.236,3.458,1.055,1.055,0,0,1-1.02,1.322m-40.1-4.894a1.052,1.052,0,0,1-.922-1.56,22.851,22.851,0,0,1,2.038-3.053,1.053,1.053,0,0,1,1.658,1.3,20.751,20.751,0,0,0-1.85,2.771,1.055,1.055,0,0,1-.924.542m35.522-3.7a1.055,1.055,0,0,1-.8-.363,20.912,20.912,0,0,0-2.384-2.334,1.053,1.053,0,1,1,1.354-1.612,23.009,23.009,0,0,1,2.625,2.57,1.051,1.051,0,0,1-.8,1.739m-29-3.54a1.051,1.051,0,0,1-.609-1.909,22.9,22.9,0,0,1,3.171-1.866,1.052,1.052,0,1,1,.923,1.89,20.773,20.773,0,0,0-2.878,1.694,1.053,1.053,0,0,1-.607.192m21.122-2.2a1.059,1.059,0,0,1-.416-.085,20.692,20.692,0,0,0-3.166-1.061,1.051,1.051,0,1,1,.508-2.04,22.825,22.825,0,0,1,3.491,1.169,1.05,1.05,0,0,1-.417,2.016m-12.088-1.473a1.051,1.051,0,0,1-.167-2.088,23.161,23.161,0,0,1,3.669-.292,1.051,1.051,0,1,1,0,2.1,21.023,21.023,0,0,0-3.332.265,1.083,1.083,0,0,1-.169.014" transform="translate(-75.646 -125.38)" fill="#1e243a"/><path d="M191.664,287.761a1.051,1.051,0,1,1,0-2.1A28.9,28.9,0,0,0,220.59,256.85a1.055,1.055,0,0,1,2.11,0,30.974,30.974,0,0,1-31.036,30.911" transform="translate(-145.233 -195.149)" fill="#1e243a"/><path d="M65.723,161.821a1.053,1.053,0,0,1-1.055-1.051A30.974,30.974,0,0,1,95.7,129.859a1.051,1.051,0,1,1,0,2.1,28.9,28.9,0,0,0-28.927,28.81,1.053,1.053,0,0,1-1.055,1.051" transform="translate(-49.273 -99.069)" fill="#1e243a"/><path d="M636.509,174.061h-1.688a1.051,1.051,0,1,1,0-2.1h1.688a1.051,1.051,0,1,1,0,2.1" transform="translate(-482.891 -131.188)" fill="#1e243a"/><path d="M701.562,174.061h-3.517a1.051,1.051,0,1,1,0-2.1h3.517a1.051,1.051,0,1,1,0,2.1m-9.847,0H688.2a1.051,1.051,0,1,1,0-2.1h3.517a1.051,1.051,0,1,1,0,2.1m-9.847,0H678.35a1.051,1.051,0,1,1,0-2.1h3.517a1.051,1.051,0,1,1,0,2.1m-9.847,0H668.5a1.051,1.051,0,1,1,0-2.1h3.517a1.051,1.051,0,1,1,0,2.1" transform="translate(-508.555 -131.188)" fill="#1e243a"/><path d="M834.538,175.812a1.053,1.053,0,0,1-1.055-1.051v-.7h-.7a1.051,1.051,0,1,1,0-2.1h1.758a1.053,1.053,0,0,1,1.055,1.051v1.751a1.053,1.053,0,0,1-1.055,1.051" transform="translate(-633.724 -131.188)" fill="#1e243a"/><path d="M840.166,226.832a1.053,1.053,0,0,1-1.055-1.051v-3.222a1.055,1.055,0,0,1,2.11,0v3.222a1.053,1.053,0,0,1-1.055,1.051m0-8.967a1.053,1.053,0,0,1-1.055-1.051v-3.222a1.055,1.055,0,0,1,2.11,0v3.222a1.053,1.053,0,0,1-1.055,1.051m0-8.967a1.053,1.053,0,0,1-1.055-1.051v-3.222a1.055,1.055,0,0,1,2.11,0v3.222a1.053,1.053,0,0,1-1.055,1.051" transform="translate(-639.352 -155.307)" fill="#1e243a"/><path d="M840.166,319.041a1.053,1.053,0,0,1-1.055-1.051v-1.681a1.055,1.055,0,0,1,2.11,0v1.681a1.053,1.053,0,0,1-1.055,1.051" transform="translate(-639.352 -240.51)" fill="#1e243a"/><path d="M191.332,498.231a1.053,1.053,0,0,1-1.055-1.051v-1.821a1.055,1.055,0,0,1,2.11,0v1.821a1.053,1.053,0,0,1-1.055,1.051" transform="translate(-144.98 -377.108)" fill="#1e243a"/><path d="M191.332,556.664a1.053,1.053,0,0,1-1.055-1.051V551.83a1.055,1.055,0,0,1,2.11,0v3.783a1.053,1.053,0,0,1-1.055,1.051m0-10.508a1.053,1.053,0,0,1-1.055-1.051v-3.783a1.055,1.055,0,0,1,2.11,0V545.1a1.053,1.053,0,0,1-1.055,1.051m0-10.508a1.053,1.053,0,0,1-1.055-1.051v-3.783a1.055,1.055,0,0,1,2.11,0V534.6a1.053,1.053,0,0,1-1.055,1.051" transform="translate(-144.98 -404.156)" fill="#1e243a"/><path d="M193.091,665.393h-1.759a1.053,1.053,0,0,1-1.055-1.051v-1.751a1.055,1.055,0,0,1,2.11,0v.7h.7a1.051,1.051,0,1,1,0,2.1" transform="translate(-144.98 -504.689)" fill="#1e243a"/><path d="M242.895,671.028h-3.1a1.051,1.051,0,1,1,0-2.1h3.1a1.051,1.051,0,1,1,0,2.1m-8.722,0h-3.095a1.051,1.051,0,1,1,0-2.1h3.095a1.051,1.051,0,1,1,0,2.1m-8.722,0h-3.095a1.051,1.051,0,1,1,0-2.1h3.095a1.051,1.051,0,1,1,0,2.1" transform="translate(-168.618 -510.324)" fill="#1e243a"/><path d="M333.506,671.028h-1.829a1.051,1.051,0,1,1,0-2.1h1.829a1.051,1.051,0,1,1,0,2.1" transform="translate(-251.914 -510.324)" fill="#1e243a"/><path d="M20.555,662.855A1.053,1.053,0,0,1,19.5,661.8v-6.3a1.055,1.055,0,0,1,2.11,0v6.3a1.053,1.053,0,0,1-1.055,1.051" transform="translate(-14.858 -499.279)" fill="#1e243a"/><path d="M13.59,669.846H7.26a1.051,1.051,0,1,1,0-2.1H13.59a1.051,1.051,0,1,1,0,2.1" transform="translate(-4.728 -509.422)" fill="#1e243a"/><path d="M317.79,728.447a1.053,1.053,0,0,1-1.055-1.051v-6.3a1.055,1.055,0,0,1,2.11,0v6.3a1.053,1.053,0,0,1-1.055,1.051" transform="translate(-241.333 -549.32)" fill="#1e243a"/><path d="M310.825,735.438h-6.33a1.051,1.051,0,1,1,0-2.1h6.33a1.051,1.051,0,1,1,0,2.1" transform="translate(-231.203 -559.462)" fill="#1e243a"/><path d="M726.118,80.2a1.053,1.053,0,0,1-1.055-1.051v-6.3a1.055,1.055,0,0,1,2.11,0v6.3a1.053,1.053,0,0,1-1.055,1.051" transform="translate(-552.454 -54.775)" fill="#1e243a"/><path d="M719.153,87.195h-6.331a1.051,1.051,0,1,1,0-2.1h6.331a1.051,1.051,0,1,1,0,2.1" transform="translate(-542.324 -64.917)" fill="#1e243a"/><path d="M42.789,514.973A1.407,1.407,0,0,1,45.6,514.9a1.371,1.371,0,0,1-1.371,1.412h-.035a1.377,1.377,0,0,1-1.405-1.335m-4.167-.775h0a1.411,1.411,0,1,1,.976.392,1.4,1.4,0,0,1-.976-.392m9.11-.214a1.4,1.4,0,1,1,1.988-.058h0a1.458,1.458,0,0,1-1.026.439,1.41,1.41,0,0,1-.963-.382m-11.5-5.255a1.407,1.407,0,1,1,1.425,1.414H37.64a1.431,1.431,0,0,1-1.407-1.414m12.786-.335a1.406,1.406,0,0,1,2.811-.107,1.372,1.372,0,0,1-1.353,1.436h-.054a1.386,1.386,0,0,1-1.4-1.329M38.5,505.124a1.41,1.41,0,1,1,.989.4,1.4,1.4,0,0,1-.989-.4m8.908-.185a1.411,1.411,0,1,1,.951.369,1.4,1.4,0,0,1-.951-.369m-4.759-2.705a1.376,1.376,0,0,1,1.422-1.4h0a1.438,1.438,0,0,1,1.391,1.4,1.407,1.407,0,0,1-2.813,0" transform="translate(-27.608 -382.085)" fill="#1e243a"/><path d="M110.154,716.478a1.407,1.407,0,0,1,2.812-.076,1.371,1.371,0,0,1-1.371,1.412h-.035a1.377,1.377,0,0,1-1.405-1.335m-4.167-.775a1.411,1.411,0,1,1,.976.392,1.4,1.4,0,0,1-.976-.392m9.11-.214a1.412,1.412,0,1,1,.963.38,1.4,1.4,0,0,1-.963-.38m-11.5-5.255a1.407,1.407,0,1,1,1.424,1.415h-.017a1.431,1.431,0,0,1-1.407-1.415m12.786-.335h0a1.407,1.407,0,0,1,2.812-.107,1.374,1.374,0,0,1-1.355,1.436h-.052a1.387,1.387,0,0,1-1.405-1.329m-10.523-3.271a1.41,1.41,0,1,1,.987.405,1.4,1.4,0,0,1-.987-.405m8.906-.185a1.411,1.411,0,1,1,.951.369,1.4,1.4,0,0,1-.951-.369m-4.759-2.705a1.4,1.4,0,0,1,1.4-1.4,1.413,1.413,0,0,1,1.417,1.4,1.441,1.441,0,0,1-1.394,1.4h0s-1.422-.628-1.422-1.4" transform="translate(-78.936 -535.813)" fill="#1e243a"/><path d="M852.945,19.779a1.407,1.407,0,0,1,2.812-.077,1.371,1.371,0,0,1-1.371,1.412h-.035a1.376,1.376,0,0,1-1.405-1.335M848.778,19a1.411,1.411,0,1,1,.976.392,1.4,1.4,0,0,1-.976-.392m9.11-.214a1.412,1.412,0,1,1,.964.38,1.4,1.4,0,0,1-.964-.38m-11.5-5.255a1.407,1.407,0,1,1,1.424,1.415H847.8a1.431,1.431,0,0,1-1.407-1.415m12.786-.335a1.407,1.407,0,0,1,2.812-.107,1.374,1.374,0,0,1-1.355,1.436h-.054a1.386,1.386,0,0,1-1.4-1.329M848.653,9.93a1.41,1.41,0,1,1,.988.4,1.4,1.4,0,0,1-.988-.4m8.906-.185h0a1.411,1.411,0,1,1,.951.368,1.4,1.4,0,0,1-.951-.368m-4.775-2.706a1.407,1.407,0,1,1,1.407,1.4,1.4,1.4,0,0,1-1.407-1.4" transform="translate(-644.898 -4.301)" fill="#1e243a"/></g></g></g></svg>