<svg xmlns="http://www.w3.org/2000/svg" xmlns:xlink="http://www.w3.org/1999/xlink" width="250" height="190" viewBox="0 0 250 190"><defs><clipPath id="a"><rect width="221.634" height="182" fill="none"/></clipPath></defs><g transform="translate(-6428 12835)"><rect width="250" height="190" transform="translate(6428 -12835)" fill="none"/><g transform="translate(6442 -12831)"><g clip-path="url(#a)"><path d="M489.251,139.313v-6.84l-5.37,0a14.423,14.423,0,0,0-1.638-4.37l3.648-3.575-4.922-4.824-3.422,3.353a15.649,15.649,0,0,0-4.656-2.105l0-4.51h-6.98l.006,4.289a15.434,15.434,0,0,0-5.026,1.953l-3.043-2.982-5,4.9,3.043,2.982a15.637,15.637,0,0,0-1.969,4.911l-4.378-.012.006,6.836,4.6-.007a15.018,15.018,0,0,0,2.141,4.568l-3.447,3.378,4.922,4.824,3.671-3.6A15.078,15.078,0,0,0,465.9,150.1l.006,5.237,6.984,0-.01-5.438a14.96,14.96,0,0,0,4.046-1.7l3.965,3.886,5-4.9-3.965-3.886a14.416,14.416,0,0,0,1.746-3.991Zm-13.863,2.475a9.4,9.4,0,0,1-13.1,0,8.949,8.949,0,0,1,0-12.836,9.4,9.4,0,0,1,13.1,0,8.949,8.949,0,0,1,0,12.836" transform="translate(-345.719 -89.55)" fill="#c5e8f6"/><path d="M166.505,306.919v-6.84l-5.37,0a14.424,14.424,0,0,0-1.638-4.369l3.648-3.575-4.922-4.824-3.422,3.353a15.641,15.641,0,0,0-4.656-2.105l0-4.51h-6.98l.006,4.289a15.439,15.439,0,0,0-5.027,1.954l-3.043-2.982-5,4.9,3.043,2.982a15.638,15.638,0,0,0-1.969,4.911l-4.378-.012.006,6.836,4.6-.007a15.008,15.008,0,0,0,2.141,4.568l-3.447,3.378,4.922,4.824,3.671-3.6a15.071,15.071,0,0,0,4.456,1.613l.006,5.237,6.984,0-.01-5.438a14.952,14.952,0,0,0,4.046-1.7l3.965,3.886,5-4.9-3.965-3.886a14.416,14.416,0,0,0,1.746-3.991Zm-14.291,2.057a8.019,8.019,0,0,1-11.18,0,7.638,7.638,0,0,1,0-10.957,8.02,8.02,0,0,1,11.18,0,7.639,7.639,0,0,1,0,10.957" transform="translate(-97.517 -218.445)" fill="#c5e8f6"/><path d="M159.847,4.8H10.035A3.815,3.815,0,0,0,6.124,8.565V19.634H163.687V8.565a3.754,3.754,0,0,0-3.84-3.763M14.39,14.53a2.644,2.644,0,1,1,2.7-2.643,2.671,2.671,0,0,1-2.7,2.643m10.848,0a2.644,2.644,0,1,1,2.7-2.643,2.671,2.671,0,0,1-2.7,2.643" transform="translate(-4.71 -3.693)" fill="#fcd118"/><path d="M748.448,373.595H691.993v12.059h60.394v-8.2a3.9,3.9,0,0,0-3.939-3.861" transform="translate(-532.167 -287.308)" fill="#fcd118"/><path d="M154.327,119.624H5.7a5.672,5.672,0,0,1-5.7-5.63V5.166A5.226,5.226,0,0,1,5.272,0H154.917a5.147,5.147,0,0,1,5.191,5.09V113.913a5.753,5.753,0,0,1-5.782,5.711M5.272,2.079a3.123,3.123,0,0,0-3.15,3.087V113.994a3.613,3.613,0,0,0,3.579,3.55H154.327a3.7,3.7,0,0,0,3.66-3.632V5.09a3.044,3.044,0,0,0-3.069-3.011Z" transform="translate(0)" fill="#1e243a"/><path d="M144.6,66.3h-142a1.04,1.04,0,1,1,0-2.079h142a1.04,1.04,0,1,1,0,2.079" transform="translate(-1.177 -49.385)" fill="#1e243a"/><path d="M122.313,18.733a1.05,1.05,0,0,1-1.061-1.04V4.941a1.061,1.061,0,0,1,2.122,0V17.693a1.05,1.05,0,0,1-1.061,1.04" transform="translate(-93.247 -3)" fill="#1e243a"/><path d="M29.4,26.894a3.684,3.684,0,1,1,3.758-3.683A3.725,3.725,0,0,1,29.4,26.894m0-5.287a1.6,1.6,0,1,0,1.636,1.6,1.622,1.622,0,0,0-1.636-1.6" transform="translate(-19.72 -15.018)" fill="#1e243a"/><path d="M76.371,26.894a3.684,3.684,0,1,1,3.758-3.683,3.725,3.725,0,0,1-3.758,3.683m0-5.287a1.6,1.6,0,1,0,1.636,1.6,1.622,1.622,0,0,0-1.636-1.6" transform="translate(-55.842 -15.018)" fill="#1e243a"/><path d="M232.024,23.085h-84.3a1.04,1.04,0,1,1,0-2.079h84.3a1.04,1.04,0,1,1,0,2.079" transform="translate(-112.791 -16.154)" fill="#1e243a"/><path d="M193.129,45.89h-45.4a1.04,1.04,0,1,1,0-2.079h45.4a1.04,1.04,0,1,1,0,2.079" transform="translate(-112.791 -33.692)" fill="#1e243a"/><path d="M668.916,66.3h-4.95a1.04,1.04,0,1,1,0-2.079h4.95a1.04,1.04,0,1,1,0,2.079" transform="translate(-509.798 -49.385)" fill="#1e243a"/><path d="M496.7,174.815a10.362,10.362,0,0,1-7.3-2.963,9.974,9.974,0,0,1,0-14.307,10.472,10.472,0,0,1,14.6,0,9.974,9.974,0,0,1,0,14.307,10.361,10.361,0,0,1-7.3,2.963m0-18.153a8.231,8.231,0,0,0-5.8,2.354,7.924,7.924,0,0,0,0,11.366,8.32,8.32,0,0,0,11.6,0,7.924,7.924,0,0,0,0-11.366,8.232,8.232,0,0,0-5.8-2.354m-6.549,1.619h0Z" transform="translate(-374.04 -118.88)" fill="#1e243a"/><path d="M467.361,152.9h0l-6.984.005a1.047,1.047,0,0,1-1.06-1.034l0-4.406a16.2,16.2,0,0,1-3.2-1.163l-3.117,3.055a1.076,1.076,0,0,1-1.5,0l-4.922-4.824a1.025,1.025,0,0,1,0-1.47l2.844-2.787a15.976,15.976,0,0,1-1.58-3.353l-3.81.036h0a1.1,1.1,0,0,1-.749-.334,1.064,1.064,0,0,1-.312-.75l-.006-6.843a1.076,1.076,0,0,1,.311-.758,1.092,1.092,0,0,1,.749-.325h0l3.534.026a16.9,16.9,0,0,1,1.489-3.685l-2.472-2.419a1.022,1.022,0,0,1,0-1.468l5-4.9a1.076,1.076,0,0,1,1.5,0l2.464,2.415a16.417,16.417,0,0,1,3.794-1.478l0-3.46a1.029,1.029,0,0,1,.31-.736,1.073,1.073,0,0,1,.75-.305h6.98a1.07,1.07,0,0,1,.75.3,1.03,1.03,0,0,1,.311.735l0,3.734a16.867,16.867,0,0,1,3.449,1.553l2.818-2.761a1.076,1.076,0,0,1,1.5,0l4.922,4.824a1.025,1.025,0,0,1,0,1.47l-3.093,3.032a15.153,15.153,0,0,1,1.181,3.127l4.521-.013h0a1.082,1.082,0,0,1,.75.315,1.042,1.042,0,0,1,.311.74v6.843a1.113,1.113,0,0,1-1.061,1.112h0l-4.784-.037a15.354,15.354,0,0,1-1.213,2.766L481.109,143a1.02,1.02,0,0,1,0,1.466l-5,4.895a1.077,1.077,0,0,1-1.5,0l-3.386-3.319a15.823,15.823,0,0,1-2.813,1.178l.009,4.658a1.011,1.011,0,0,1-.31.728,1.064,1.064,0,0,1-.751.3m-5.924-2.066,4.862,0-.008-4.4a1.043,1.043,0,0,1,.787-1.006,13.837,13.837,0,0,0,3.759-1.581,1.077,1.077,0,0,1,1.311.147l3.215,3.151,3.5-3.427-3.215-3.151a1.024,1.024,0,0,1-.151-1.284,13.673,13.673,0,0,0,1.621-3.742,1.088,1.088,0,0,1,1.025-.807h0l4.519.035v-4.755l-4.308.007h0a1.045,1.045,0,0,1-1.04-.824,13.312,13.312,0,0,0-1.521-4.056,1.02,1.02,0,0,1,.174-1.243l2.9-2.839-3.422-3.353-2.672,2.619a1.077,1.077,0,0,1-1.347.124,14.606,14.606,0,0,0-4.334-1.96,1.043,1.043,0,0,1-.785-1l0-3.469h-4.857l0,3.248a1.045,1.045,0,0,1-.851,1.02,14.3,14.3,0,0,0-4.677,1.818,1.077,1.077,0,0,1-1.31-.148l-2.293-2.247-3.5,3.427,2.293,2.247a1.024,1.024,0,0,1,.159,1.271,14.52,14.52,0,0,0-1.838,4.558,1.036,1.036,0,0,1-1.04.812h0l-3.314.014,0,4.8,3.542.04h0a1.028,1.028,0,0,1,1.025.738,13.923,13.923,0,0,0,1.993,4.235,1.013,1.013,0,0,1-.128,1.311l-2.7,2.639,3.422,3.352,2.922-2.864a1.076,1.076,0,0,1,1.272-.17,13.9,13.9,0,0,0,4.141,1.5,1.045,1.045,0,0,1,.854,1.018Z" transform="translate(-340.65 -86.089)" fill="#1e243a"/><path d="M182.78,347.775a9.032,9.032,0,0,1-6.34-2.569,8.674,8.674,0,0,1,0-12.427,9.1,9.1,0,0,1,12.68,0,8.673,8.673,0,0,1,0,12.427,9.035,9.035,0,0,1-6.34,2.569m0-15.491a6.87,6.87,0,0,0-4.84,1.965,6.621,6.621,0,0,0,0,9.486,6.952,6.952,0,0,0,9.679,0,6.621,6.621,0,0,0,0-9.486,6.871,6.871,0,0,0-4.84-1.965m-5.59,1.23h0Z" transform="translate(-133.673 -253.939)" fill="#1e243a"/><path d="M146.615,320.469h0l-6.984.024a1.039,1.039,0,0,1-1.06-1.025l0-4.4a16.21,16.21,0,0,1-3.2-1.161l-3.117,3.056a1.076,1.076,0,0,1-1.5,0l-4.922-4.823a1.025,1.025,0,0,1,0-1.47l2.844-2.787a16.1,16.1,0,0,1-1.58-3.372l-3.81.018h0a1.084,1.084,0,0,1-.749-.315,1.043,1.043,0,0,1-.312-.741l-.006-6.839a.958.958,0,0,1,.311-.7,1.044,1.044,0,0,1,.749-.272h0l3.534-.024a17.118,17.118,0,0,1,1.489-3.71l-2.472-2.431a1.033,1.033,0,0,1,0-1.477l5-4.9a1.076,1.076,0,0,1,1.5,0l2.464,2.414a16.415,16.415,0,0,1,3.794-1.479l0-3.46a1.03,1.03,0,0,1,.31-.736,1.073,1.073,0,0,1,.751-.305h6.98a1.07,1.07,0,0,1,.75.3,1.03,1.03,0,0,1,.311.735l0,3.734a16.877,16.877,0,0,1,3.449,1.553l2.818-2.762a1.076,1.076,0,0,1,1.5,0l4.922,4.824a1.025,1.025,0,0,1,0,1.47l-3.093,3.032a14.989,14.989,0,0,1,1.181,3.108l4.521-.032h0a1.1,1.1,0,0,1,.75.334,1.063,1.063,0,0,1,.311.75v6.847a1.075,1.075,0,0,1-.311.755,1.092,1.092,0,0,1-.75.324h0l-4.784-.018a15.448,15.448,0,0,1-1.213,2.775l3.387,3.315a1.022,1.022,0,0,1,0,1.468l-5,4.9a1.077,1.077,0,0,1-1.5,0l-3.386-3.319a15.81,15.81,0,0,1-2.813,1.178l.009,4.658a.969.969,0,0,1-.31.709,1.048,1.048,0,0,1-.751.278m-5.924-2.028,4.862,0-.008-4.4a1.044,1.044,0,0,1,.787-1.006,13.837,13.837,0,0,0,3.759-1.581,1.077,1.077,0,0,1,1.311.147l3.215,3.151,3.5-3.427-3.215-3.151a1.024,1.024,0,0,1-.151-1.284,13.36,13.36,0,0,0,1.621-3.691,1.042,1.042,0,0,1,1.025-.756h0l4.519-.015v-4.8L157.6,297.6h0a1.029,1.029,0,0,1-1.04-.805,13.252,13.252,0,0,0-1.521-4.046,1.013,1.013,0,0,1,.174-1.238l2.9-2.836-3.422-3.352-2.672,2.619a1.077,1.077,0,0,1-1.347.125,14.61,14.61,0,0,0-4.334-1.96,1.043,1.043,0,0,1-.785-1l0-3.469H140.7l0,3.248a1.045,1.045,0,0,1-.851,1.021,14.3,14.3,0,0,0-4.677,1.818,1.077,1.077,0,0,1-1.309-.148l-2.293-2.247-3.5,3.427L130.369,291a1.024,1.024,0,0,1,.159,1.271,14.781,14.781,0,0,0-1.838,4.608,1.081,1.081,0,0,1-1.04.862h0l-3.314-.036,0,4.753,3.542,0h0a1.044,1.044,0,0,1,1.025.757,13.972,13.972,0,0,0,1.993,4.244,1.019,1.019,0,0,1-.127,1.316l-2.7,2.641,3.422,3.352,2.921-2.863a1.076,1.076,0,0,1,1.272-.17,13.9,13.9,0,0,0,4.141,1.5,1.045,1.045,0,0,1,.854,1.018Z" transform="translate(-93.985 -214.984)" fill="#1e243a"/><path d="M142.867,151.517H96.9a1.04,1.04,0,1,1,0-2.079h45.968a1.04,1.04,0,1,1,0,2.079" transform="translate(-73.704 -114.923)" fill="#1e243a"/><path d="M265.039,204.931H245.1a1.04,1.04,0,1,1,0-2.079h19.943a1.04,1.04,0,1,1,0,2.079" transform="translate(-187.672 -156)" fill="#1e243a"/><path d="M488.143,426.387H457.592a1.04,1.04,0,1,1,0-2.079h30.551a1.04,1.04,0,1,1,0,2.079" transform="translate(-351.089 -326.308)" fill="#1e243a"/><path d="M385.488,372.973H366.96a1.04,1.04,0,1,1,0-2.079h18.528a1.04,1.04,0,1,1,0,2.079" transform="translate(-281.389 -285.231)" fill="#1e243a"/><path d="M497.78,372.973h-6.506a1.04,1.04,0,1,1,0-2.079h6.506a1.04,1.04,0,1,1,0,2.079" transform="translate(-376.991 -285.231)" fill="#1e243a"/><path d="M558.854,569.87a1.068,1.068,0,0,1-.715-.272l-15.661-14.019a1.026,1.026,0,0,1,0-1.535l15.661-14.019a1.076,1.076,0,0,1,1.5.066,1.025,1.025,0,0,1-.068,1.469l-14.8,13.252,14.8,13.252a1.025,1.025,0,0,1,.068,1.469,1.067,1.067,0,0,1-.783.339" transform="translate(-416.92 -415.089)" fill="#1e243a"/><path d="M740.814,569.871a1.068,1.068,0,0,1-.783-.339,1.025,1.025,0,0,1,.068-1.469l14.8-13.252L740.1,541.56a1.025,1.025,0,0,1-.068-1.469,1.076,1.076,0,0,1,1.5-.066l15.661,14.02a1.026,1.026,0,0,1,0,1.535L741.529,569.6a1.068,1.068,0,0,1-.715.272" transform="translate(-568.896 -415.089)" fill="#1e243a"/><path d="M659.179,569.869a1.089,1.089,0,0,1-.277-.036,1.038,1.038,0,0,1-.748-1.275l7.727-28.039a1.063,1.063,0,0,1,1.3-.733,1.038,1.038,0,0,1,.748,1.275L660.2,569.1a1.058,1.058,0,0,1-1.023.769" transform="translate(-506.116 -415.087)" fill="#1e243a"/><path d="M522.926,465.846H404.98a5.654,5.654,0,0,1-5.707-5.587V403.054a1.061,1.061,0,0,1,2.122,0V460.26a3.551,3.551,0,0,0,3.585,3.508H522.926a3.62,3.62,0,0,0,3.643-3.589V374.084a2.917,2.917,0,0,0-2.984-2.911h-56.7a1.04,1.04,0,1,1,0-2.079h56.7a5.054,5.054,0,0,1,5.106,4.99v86.094a5.723,5.723,0,0,1-5.764,5.668" transform="translate(-307.055 -283.846)" fill="#1e243a"/><path d="M736.409,423.386H688.461a1.04,1.04,0,1,1,0-2.079h47.948a1.04,1.04,0,1,1,0,2.079" transform="translate(-528.635 -324)" fill="#1e243a"/><path d="M717.031,393.979h-28.57a1.04,1.04,0,1,1,0-2.079h28.57a1.04,1.04,0,1,1,0,2.079" transform="translate(-528.635 -301.385)" fill="#1e243a"/><path d="M937.7,423.386h-3.677a1.04,1.04,0,1,1,0-2.079H937.7a1.04,1.04,0,1,1,0,2.079" transform="translate(-717.484 -324)" fill="#1e243a"/><path d="M38.416,569.16a1.05,1.05,0,0,1-1.061-1.039v-6.238a1.061,1.061,0,0,1,2.122,0v6.238a1.05,1.05,0,0,1-1.061,1.039" transform="translate(-28.727 -431.308)" fill="#1e243a"/><path d="M31,576.425H24.638a1.04,1.04,0,1,1,0-2.079H31a1.04,1.04,0,1,1,0,2.079" transform="translate(-18.132 -441.693)" fill="#1e243a"/><path d="M258.874,713.8a1.05,1.05,0,0,1-1.061-1.04v-6.238a1.061,1.061,0,0,1,2.122,0v6.238a1.05,1.05,0,0,1-1.061,1.04" transform="translate(-198.267 -542.539)" fill="#1e243a"/><path d="M251.46,721.062H245.1a1.04,1.04,0,1,1,0-2.079h6.365a1.04,1.04,0,1,1,0,2.079" transform="translate(-187.672 -552.924)" fill="#1e243a"/><path d="M792.26,86.037A1.05,1.05,0,0,1,791.2,85V78.76a1.061,1.061,0,0,1,2.122,0V85a1.05,1.05,0,0,1-1.061,1.04" transform="translate(-608.46 -59.769)" fill="#1e243a"/><path d="M784.846,93.3h-6.365a1.04,1.04,0,1,1,0-2.079h6.365a1.04,1.04,0,1,1,0,2.079" transform="translate(-597.865 -70.155)" fill="#1e243a"/><path d="M914.124,301.492a1.05,1.05,0,0,1-1.061-1.04v-6.238a1.061,1.061,0,0,1,2.122,0v6.238a1.05,1.05,0,0,1-1.061,1.04" transform="translate(-702.178 -225.462)" fill="#1e243a"/><path d="M906.711,308.757h-6.365a1.04,1.04,0,1,1,0-2.079h6.365a1.04,1.04,0,1,1,0,2.079" transform="translate(-691.582 -235.846)" fill="#1e243a"/><path d="M286.032,559.852a1.415,1.415,0,0,1,2.827-.076,1.367,1.367,0,0,1-1.379,1.4h-.035a1.374,1.374,0,0,1-1.413-1.321m-4.188-.758h0a1.373,1.373,0,0,1-.037-1.964,1.436,1.436,0,0,1,2-.038,1.365,1.365,0,0,1,.037,1.959,1.424,1.424,0,0,1-1.018.428,1.344,1.344,0,0,1-.98-.385m9.158-.22a1.368,1.368,0,0,1-.062-1.96,1.437,1.437,0,0,1,2-.061,1.368,1.368,0,0,1,.062,1.96,1.437,1.437,0,0,1-2,.061m-11.561-5.2h0a1.414,1.414,0,1,1,1.433,1.4h-.018a1.428,1.428,0,0,1-1.414-1.4m12.855-.311a1.414,1.414,0,1,1,1.465,1.333h-.054a1.4,1.4,0,0,1-1.412-1.335m-10.58-3.256a1.366,1.366,0,0,1-.013-1.96,1.434,1.434,0,0,1,2-.013,1.368,1.368,0,0,1,.013,1.961,1.434,1.434,0,0,1-2,.011m8.954-.183a1.367,1.367,0,0,1-.086-1.959,1.435,1.435,0,0,1,2-.085,1.367,1.367,0,0,1,.086,1.959,1.435,1.435,0,0,1-2,.085m-4.8-2.677a1.415,1.415,0,1,1,1.414,1.386,1.4,1.4,0,0,1-1.414-1.386" transform="translate(-214.9 -419.787)" fill="#1e243a"/><path d="M890.454,24.516a1.415,1.415,0,0,1,2.827-.076,1.367,1.367,0,0,1-1.379,1.4h-.035a1.374,1.374,0,0,1-1.413-1.321m-4.188-.767a1.367,1.367,0,0,1-.038-1.96,1.435,1.435,0,0,1,2-.036,1.367,1.367,0,0,1,.038,1.96,1.435,1.435,0,0,1-2,.036m9.158-.212a1.368,1.368,0,0,1-.062-1.96,1.436,1.436,0,0,1,2-.061,1.368,1.368,0,0,1,.062,1.96,1.436,1.436,0,0,1-2,.061m-11.561-5.2a1.414,1.414,0,1,1,1.433,1.4h-.018a1.428,1.428,0,0,1-1.414-1.4m12.855-.311a1.414,1.414,0,1,1,1.465,1.333h-.054a1.4,1.4,0,0,1-1.412-1.335m-10.58-3.256a1.366,1.366,0,0,1-.013-1.96,1.434,1.434,0,0,1,2-.012,1.368,1.368,0,0,1,.013,1.961,1.434,1.434,0,0,1-2,.011m8.955-.183a1.367,1.367,0,0,1-.086-1.959,1.435,1.435,0,0,1,2-.085,1.367,1.367,0,0,1,.086,1.959,1.435,1.435,0,0,1-2,.085m-4.8-2.677a1.415,1.415,0,1,1,1.414,1.386,1.4,1.4,0,0,1-1.414-1.386" transform="translate(-679.722 -8.095)" fill="#1e243a"/><path d="M728.785,251.374a1.415,1.415,0,0,1,2.827-.076,1.368,1.368,0,0,1-1.379,1.4H730.2a1.375,1.375,0,0,1-1.413-1.321m-4.189-.767a1.368,1.368,0,0,1-.037-1.96,1.436,1.436,0,0,1,2-.036,1.365,1.365,0,0,1,.037,1.96,1.435,1.435,0,0,1-2,.036m9.16-.212a1.368,1.368,0,0,1-.062-1.96,1.436,1.436,0,0,1,2-.061,1.368,1.368,0,0,1,.062,1.96,1.436,1.436,0,0,1-2,.061m-11.561-5.2h0a1.414,1.414,0,1,1,1.433,1.4h-.018a1.427,1.427,0,0,1-1.414-1.4m12.855-.331a1.415,1.415,0,0,1,2.826-.107,1.368,1.368,0,0,1-1.361,1.422h-.054a1.385,1.385,0,0,1-1.412-1.315m-10.58-3.236a1.366,1.366,0,0,1-.013-1.96,1.434,1.434,0,0,1,2-.012,1.368,1.368,0,0,1,.013,1.961,1.434,1.434,0,0,1-2,.011m8.955-.183a1.368,1.368,0,0,1-.086-1.959,1.434,1.434,0,0,1,2-.085,1.367,1.367,0,0,1,.086,1.959,1.435,1.435,0,0,1-2,.085m-4.8-2.677a1.415,1.415,0,1,1,1.414,1.386,1.4,1.4,0,0,1-1.414-1.386" transform="translate(-555.393 -182.557)" fill="#1e243a"/><path d="M28.218,707.49a1.415,1.415,0,0,1,2.827-.076,1.367,1.367,0,0,1-1.379,1.4h-.035a1.376,1.376,0,0,1-1.413-1.321m-4.188-.767a1.367,1.367,0,0,1-.038-1.96,1.435,1.435,0,0,1,2-.036,1.367,1.367,0,0,1,.038,1.96,1.435,1.435,0,0,1-2,.036m9.158-.212a1.368,1.368,0,0,1-.062-1.96,1.437,1.437,0,0,1,2-.061,1.368,1.368,0,0,1,.062,1.96,1.436,1.436,0,0,1-2,.061m-11.561-5.186h0a1.377,1.377,0,0,1,1.4-1.424,1.405,1.405,0,1,1,.035,2.811h-.018a1.463,1.463,0,0,1-1.414-1.386m12.855-.345a1.415,1.415,0,0,1,2.826-.107,1.367,1.367,0,0,1-1.36,1.422H35.9a1.384,1.384,0,0,1-1.413-1.315M23.9,697.747a1.368,1.368,0,0,1-.013-1.961,1.433,1.433,0,0,1,2-.011,1.366,1.366,0,0,1,.013,1.96,1.436,1.436,0,0,1-2,.013m8.954-.184a1.367,1.367,0,0,1-.086-1.959,1.435,1.435,0,0,1,2-.084,1.367,1.367,0,0,1,.086,1.958,1.435,1.435,0,0,1-2,.085m-4.8-2.677a1.415,1.415,0,1,1,1.414,1.386,1.4,1.4,0,0,1-1.414-1.386" transform="translate(-16.632 -533.326)" fill="#1e243a"/></g></g></g></svg>