<svg xmlns="http://www.w3.org/2000/svg" xmlns:xlink="http://www.w3.org/1999/xlink" width="250" height="190" viewBox="0 0 250 190"><defs><clipPath id="a"><rect width="227.134" height="183.551" fill="none"/></clipPath></defs><g transform="translate(-5649 12829)"><rect width="250" height="190" transform="translate(5649 -12829)" fill="none"/><g transform="translate(5660 -12826)"><g clip-path="url(#a)"><path d="M252.971,382.84a5.727,5.727,0,0,0,0,8.075l3.492,3.492a5.685,5.685,0,0,0,8.04,0l19.534-19.534-11.549-11.549Z" transform="translate(-192.672 -278.555)" fill="#c5e8f6"/><path d="M633.582,576.229v7.642a2.37,2.37,0,0,0,2.37,2.37h30.831l11.8-12.382H635.952a2.37,2.37,0,0,0-2.37,2.37" transform="translate(-485.757 -439.968)" fill="#fcd118"/><path d="M633.582,678.668v7.642a2.37,2.37,0,0,0,2.37,2.37h9.279l11.8-12.382H635.952a2.37,2.37,0,0,0-2.37,2.37" transform="translate(-485.757 -518.507)" fill="#fcd118"/><path d="M340.468,319.1a2.363,2.363,0,0,0-3.342,0l-4.57,4.57a2.363,2.363,0,0,0,0,3.342l15.119,15.119a2.363,2.363,0,0,0,3.342,0l4.57-4.57a2.363,2.363,0,0,0,0-3.342Z" transform="translate(-254.435 -244.117)" fill="#fcd118"/><path d="M203.025,4.993H25.007a4.037,4.037,0,0,0-4.1,4.026V22.9H207.153V9.019a4.063,4.063,0,0,0-4.128-4.026M30.666,16.7a3.186,3.186,0,1,1,3.186-3.186A3.186,3.186,0,0,1,30.666,16.7m12.813,0a3.186,3.186,0,1,1,3.186-3.186A3.186,3.186,0,0,1,43.479,16.7" transform="translate(-16.03 -3.828)" fill="#f7cb16"/><path d="M17.007,752a1.092,1.092,0,0,1-1.092-1.092v-7.426a1.092,1.092,0,1,1,2.184,0v7.426A1.092,1.092,0,0,1,17.007,752" transform="translate(-12.202 -569.18)" fill="#1e243a"/><path d="M8.519,760.491H1.092a1.092,1.092,0,1,1,0-2.184H8.519a1.092,1.092,0,1,1,0,2.184" transform="translate(0 -581.381)" fill="#1e243a"/><path d="M279.138,634.669a1.092,1.092,0,0,1-1.092-1.092V626.15a1.092,1.092,0,1,1,2.184,0v7.426a1.092,1.092,0,0,1-1.092,1.092" transform="translate(-213.173 -479.222)" fill="#1e243a"/><path d="M270.65,643.156h-7.426a1.092,1.092,0,1,1,0-2.184h7.426a1.092,1.092,0,1,1,0,2.184" transform="translate(-200.972 -491.423)" fill="#1e243a"/><path d="M152.639,730.344h0a1.455,1.455,0,1,1,.615.137,1.457,1.457,0,0,1-.615-.137m4.239-.737a1.456,1.456,0,1,1,1.956.647,1.44,1.44,0,0,1-.654.156,1.457,1.457,0,0,1-1.3-.8m-8.15-4.067a1.456,1.456,0,1,1,1.752,1.084,1.488,1.488,0,0,1-.336.039,1.456,1.456,0,0,1-1.415-1.123m12.156.932a1.453,1.453,0,1,1,.3.031,1.456,1.456,0,0,1-.3-.031m-10.576-4.932a1.456,1.456,0,0,1-.238-2.046h0a1.456,1.456,0,1,1,.238,2.045m8.549-.332h0a1.457,1.457,0,1,1,1.115.52,1.457,1.457,0,0,1-1.115-.52m-4.67-2.954a1.456,1.456,0,1,1,1.456,1.456,1.457,1.457,0,0,1-1.456-1.456" transform="translate(-113.997 -549.557)" fill="#1e243a"/><path d="M460.275,733.908a1.455,1.455,0,1,1,.614.137,1.455,1.455,0,0,1-.614-.137m4.239-.737a1.455,1.455,0,1,1,1.3.8,1.456,1.456,0,0,1-1.3-.8m-8.15-4.066a1.456,1.456,0,1,1,1.752,1.082,1.492,1.492,0,0,1-.336.039,1.455,1.455,0,0,1-1.415-1.121m12.156.93a1.455,1.455,0,0,1-1.133-1.72v0a1.459,1.459,0,1,1,1.133,1.718m-10.576-4.93a1.456,1.456,0,1,1,.9.314,1.457,1.457,0,0,1-.9-.314m8.549-.334h0a1.456,1.456,0,1,1,1.115.52,1.455,1.455,0,0,1-1.115-.52m-4.67-2.955a1.456,1.456,0,1,1,1.456,1.456,1.457,1.457,0,0,1-1.456-1.456" transform="translate(-349.856 -552.289)" fill="#1e243a"/><path d="M904.962,25.218a1.455,1.455,0,1,1,.615.137,1.455,1.455,0,0,1-.615-.137m4.239-.737a1.455,1.455,0,1,1,1.3.8,1.456,1.456,0,0,1-1.3-.8m-8.15-4.066A1.456,1.456,0,1,1,902.8,21.5a1.5,1.5,0,0,1-.336.039,1.455,1.455,0,0,1-1.415-1.121m12.156.93a1.455,1.455,0,0,1-1.133-1.718h0a1.459,1.459,0,1,1,1.133,1.72m-10.576-4.93a1.456,1.456,0,1,1,.9.315,1.456,1.456,0,0,1-.9-.315m8.549-.334a1.454,1.454,0,1,1,1.115.52,1.455,1.455,0,0,1-1.115-.52m-4.67-2.954a1.456,1.456,0,1,1,1.456,1.456,1.457,1.457,0,0,1-1.456-1.456" transform="translate(-690.79 -8.948)" fill="#1e243a"/><path d="M918.239,489.187a1.092,1.092,0,0,1-1.092-1.092v-1.747a1.092,1.092,0,1,1,2.184,0v1.747a1.092,1.092,0,0,1-1.092,1.092" transform="translate(-703.161 -372.037)" fill="#1e243a"/><path d="M918.239,270.386a1.092,1.092,0,0,1-1.092-1.092v-3.786a1.092,1.092,0,1,1,2.184,0v3.786a1.092,1.092,0,0,1-1.092,1.092m0-10.63a1.092,1.092,0,0,1-1.092-1.092v-3.786a1.092,1.092,0,0,1,2.184,0v3.786a1.092,1.092,0,0,1-1.092,1.092m0-10.63a1.092,1.092,0,0,1-1.092-1.092v-3.786a1.092,1.092,0,1,1,2.184,0v3.786a1.092,1.092,0,0,1-1.092,1.092m0-10.63a1.092,1.092,0,0,1-1.092-1.092v-3.786a1.092,1.092,0,1,1,2.184,0V237.4a1.092,1.092,0,0,1-1.092,1.092m0-10.63a1.092,1.092,0,0,1-1.092-1.092v-3.786a1.092,1.092,0,1,1,2.184,0v3.786a1.092,1.092,0,0,1-1.092,1.092m0-10.63a1.092,1.092,0,0,1-1.092-1.092v-3.786a1.092,1.092,0,1,1,2.184,0v3.786a1.092,1.092,0,0,1-1.092,1.092" transform="translate(-703.161 -161.973)" fill="#1e243a"/><path d="M912.258,175.637a1.092,1.092,0,0,1-1.092-1.092v-.728h-.728a1.092,1.092,0,1,1,0-2.184h1.82a1.092,1.092,0,0,1,1.092,1.092v1.82a1.092,1.092,0,0,1-1.092,1.092" transform="translate(-697.18 -131.588)" fill="#1e243a"/><path d="M873.843,173.817h-3.349a1.092,1.092,0,0,1,0-2.184h3.349a1.092,1.092,0,0,1,0,2.184" transform="translate(-666.555 -131.588)" fill="#1e243a"/><path d="M839.163,173.817h-1.748a1.092,1.092,0,0,1,0-2.184h1.748a1.092,1.092,0,0,1,0,2.184" transform="translate(-641.195 -131.588)" fill="#1e243a"/><path d="M147.762,139.356H20.464a5.8,5.8,0,0,1-5.8-5.8V5.4A5.465,5.465,0,0,1,20.18,0H198.034a5.3,5.3,0,0,1,5.353,5.361v116.23a1.092,1.092,0,1,1-2.184,0V5.361a3.1,3.1,0,0,0-3.169-3.177H20.18A3.28,3.28,0,0,0,16.851,5.4V133.559a3.661,3.661,0,0,0,3.613,3.613h127.3a1.092,1.092,0,0,1,0,2.184" transform="translate(-11.245)" fill="#1e243a"/><path d="M185.071,78.95H17.319a1.092,1.092,0,1,1,0-2.184H185.071a1.092,1.092,0,0,1,0,2.184" transform="translate(-12.441 -58.855)" fill="#1e243a"/><path d="M157.434,22.154a1.092,1.092,0,0,1-1.092-1.092V5.772a1.092,1.092,0,0,1,2.184,0v15.29a1.092,1.092,0,0,1-1.092,1.092" transform="translate(-119.865 -3.588)" fill="#1e243a"/><path d="M48.674,31.72a4.278,4.278,0,1,1,4.278-4.278,4.283,4.283,0,0,1-4.278,4.278m0-6.372a2.094,2.094,0,1,0,2.094,2.094,2.1,2.1,0,0,0-2.094-2.094" transform="translate(-34.038 -17.759)" fill="#1e243a"/><path d="M103.591,31.72a4.278,4.278,0,1,1,4.278-4.278,4.283,4.283,0,0,1-4.278,4.278m0-6.372a2.094,2.094,0,1,0,2.094,2.094,2.1,2.1,0,0,0-2.094-2.094" transform="translate(-76.142 -17.759)" fill="#1e243a"/><path d="M287.161,26.524H187.7a1.092,1.092,0,0,1,0-2.184h99.457a1.092,1.092,0,1,1,0,2.184" transform="translate(-143.072 -18.661)" fill="#1e243a"/><path d="M241.292,53.986H187.7a1.092,1.092,0,0,1,0-2.184h53.587a1.092,1.092,0,0,1,0,2.184" transform="translate(-143.072 -39.716)" fill="#1e243a"/><path d="M796.431,78.95h-5.825a1.092,1.092,0,1,1,0-2.184h5.825a1.092,1.092,0,0,1,0,2.184" transform="translate(-605.307 -58.855)" fill="#1e243a"/><path d="M455.361,355.167a13.886,13.886,0,0,1-9.854-4.217,13.587,13.587,0,0,1-3.245-15.069l-14.494-14.494a1.092,1.092,0,1,1,1.545-1.545l15.025,15.025a1.092,1.092,0,0,1,.213,1.244,11.979,11.979,0,0,0,14.132,16.372l-7.118-7.118a3.068,3.068,0,0,1-.825-1.6,2.2,2.2,0,0,1,.555-1.98l5.022-5.022a2.907,2.907,0,0,1,3.795.052l7.06,7.06a11.974,11.974,0,0,0-16.889-13.554,1.091,1.091,0,0,1-1.241-.214l-14.816-14.816a1.092,1.092,0,1,1,1.545-1.544l14.286,14.286a14.138,14.138,0,0,1,18.607,18.283,1.092,1.092,0,0,1-1.782.357l-8.314-8.314a.916.916,0,0,0-.717-.041l-4.969,4.969a.85.85,0,0,0,.228.53l8.314,8.314a1.092,1.092,0,0,1-.321,1.767,13.852,13.852,0,0,1-5.74,1.266m2.481-16.842Z" transform="translate(-327.717 -240.302)" fill="#1e243a"/><path d="M296.468,188.444a1.089,1.089,0,0,1-.772-.32l-14.557-14.558A14.145,14.145,0,0,1,263.1,154.71a1.092,1.092,0,0,1,1.767-.321l8.314,8.314a.266.266,0,0,0,.1.071.317.317,0,0,0,.082-.063l5.022-5.022a.78.78,0,0,0,.216-.48l-8.278-8.278a1.092,1.092,0,0,1,.389-1.795,14.844,14.844,0,0,1,7.826-.622,14.119,14.119,0,0,1,7.442,3.86,13.758,13.758,0,0,1,3.884,7.652,14.412,14.412,0,0,1-.917,7.714L303.606,180.4a1.092,1.092,0,0,1-1.545,1.545l-15.185-15.185a1.092,1.092,0,0,1-.216-1.238,12.008,12.008,0,0,0-2.223-13.6,12.551,12.551,0,0,0-11.254-3.218l7,7a2.562,2.562,0,0,1-.252,3.534l-5.022,5.022a2.238,2.238,0,0,1-3.273-.009l-7.119-7.119A11.972,11.972,0,0,0,280.9,171.278a1.092,1.092,0,0,1,1.246.212l15.09,15.09a1.092,1.092,0,0,1-.772,1.864" transform="translate(-200.738 -112.131)" fill="#1e243a"/><path d="M334.24,247.428a1.089,1.089,0,0,1-.772-.32l-2.364-2.364a1.092,1.092,0,0,1,1.545-1.545l2.364,2.364a1.092,1.092,0,0,1-.772,1.864" transform="translate(-253.606 -186.212)" fill="#1e243a"/><path d="M361.134,220.535a1.089,1.089,0,0,1-.772-.32L358,217.85a1.092,1.092,0,1,1,1.545-1.545l2.364,2.364a1.092,1.092,0,0,1-.772,1.864" transform="translate(-274.225 -165.593)" fill="#1e243a"/><path d="M495.788,408.977a1.088,1.088,0,0,1-.772-.32l-2.546-2.546a1.092,1.092,0,0,1,1.544-1.544l2.546,2.546a1.092,1.092,0,0,1-.772,1.865" transform="translate(-377.323 -309.929)" fill="#1e243a"/><path d="M522.682,382.082a1.089,1.089,0,0,1-.772-.32l-2.546-2.546a1.092,1.092,0,0,1,1.544-1.544l2.546,2.546a1.092,1.092,0,0,1-.772,1.864" transform="translate(-397.942 -289.31)" fill="#1e243a"/><path d="M345.757,340.332a3.433,3.433,0,0,1-2.443-1.012L328.2,324.2a3.455,3.455,0,0,1,0-4.887l4.57-4.57a3.46,3.46,0,0,1,4.887,0l15.119,15.119a3.455,3.455,0,0,1,0,4.887l-4.57,4.57a3.433,3.433,0,0,1-2.443,1.012m-10.549-24.414a1.267,1.267,0,0,0-.9.372l-4.57,4.57a1.271,1.271,0,0,0,0,1.8l15.119,15.119a1.271,1.271,0,0,0,1.8,0l4.57-4.57a1.271,1.271,0,0,0,0-1.8l-15.119-15.119a1.267,1.267,0,0,0-.9-.372" transform="translate(-250.846 -240.535)" fill="#1e243a"/><path d="M256.883,393.575a6.733,6.733,0,0,1-4.792-1.985L248.6,388.1a6.81,6.81,0,0,1,0-9.62l19.516-19.516a1.092,1.092,0,0,1,1.544,1.544l-19.516,19.516a4.623,4.623,0,0,0,0,6.531l3.492,3.492a4.6,4.6,0,0,0,6.5,0l19.534-19.533a1.092,1.092,0,0,1,1.545,1.544L261.675,391.59a6.733,6.733,0,0,1-4.792,1.985" transform="translate(-189.072 -274.966)" fill="#1e243a"/><path d="M352.624,329.735a1.089,1.089,0,0,1-.772-.32l-2.819-2.819a1.092,1.092,0,0,1,1.545-1.545l2.819,2.819a1.092,1.092,0,0,1-.772,1.864" transform="translate(-267.352 -248.967)" fill="#1e243a"/><path d="M398.54,398.258a1.089,1.089,0,0,1-.772-.32l-3.91-3.91a1.092,1.092,0,0,1,1.545-1.545l3.91,3.91a1.092,1.092,0,0,1-.772,1.864" transform="translate(-301.718 -300.665)" fill="#1e243a"/><path d="M309.658,383.057a1.092,1.092,0,0,1-.772-1.865l9.367-9.367a1.092,1.092,0,1,1,1.545,1.544l-9.367,9.367a1.088,1.088,0,0,1-.772.32" transform="translate(-236.573 -284.827)" fill="#1e243a"/><path d="M274.579,469.509a1.092,1.092,0,0,1-.772-1.864l7.73-7.73a1.092,1.092,0,0,1,1.544,1.545l-7.729,7.73a1.089,1.089,0,0,1-.772.32" transform="translate(-209.678 -352.364)" fill="#1e243a"/><path d="M393.238,216.815a1.092,1.092,0,0,1-.772-1.864l27.012-27a1.085,1.085,0,0,1,.772-.312h0a1.083,1.083,0,0,1,.772.313l1.044,1.043,5.976-5.979,3.195-7.408-2.179-2.179-7.478,3.131-5.975,5.975.955.958a1.092,1.092,0,0,1,0,1.543l-27.007,27.006a1.092,1.092,0,1,1-1.545-1.545l26.235-26.236-.955-.958a1.092,1.092,0,0,1,0-1.543l6.9-6.9a1.091,1.091,0,0,1,.35-.235l8.353-3.5a1.092,1.092,0,0,1,1.194.235l3.221,3.221a1.092,1.092,0,0,1,.231,1.2l-3.571,8.279a1.091,1.091,0,0,1-.231.34l-6.9,6.869a1.066,1.066,0,0,1-.772.291h0a1.065,1.065,0,0,1-.773-.292l-1.044-1.033-26.239,26.246a1.1,1.1,0,0,1-.772.327" transform="translate(-297.236 -131.136)" fill="#1e243a"/><path d="M336.553,423.671a1.092,1.092,0,0,1-.773-1.864l2.819-2.819a1.092,1.092,0,0,1,1.545,1.545l-2.819,2.819a1.089,1.089,0,0,1-.772.32" transform="translate(-257.192 -320.986)" fill="#1e243a"/><path d="M274.579,439.7a1.092,1.092,0,0,1-.772-1.864l2.092-2.092a1.092,1.092,0,0,1,1.545,1.545l-2.092,2.092a1.089,1.089,0,0,1-.772.32" transform="translate(-209.678 -333.836)" fill="#1e243a"/><path d="M75.154,133.249H59.136a1.092,1.092,0,1,1,0-2.184H75.154a1.092,1.092,0,1,1,0,2.184" transform="translate(-44.501 -100.485)" fill="#1e243a"/><path d="M124.251,293.024H114.058a1.092,1.092,0,0,1,0-2.184h10.193a1.092,1.092,0,0,1,0,2.184" transform="translate(-86.609 -222.982)" fill="#1e243a"/><path d="M218.036,293.024h-3.495a1.092,1.092,0,0,1,0-2.184h3.495a1.092,1.092,0,0,1,0,2.184" transform="translate(-163.648 -222.982)" fill="#1e243a"/><path d="M599.708,339.209h-7.572a1.092,1.092,0,0,1,0-2.184h7.572a1.092,1.092,0,0,1,0,2.184" transform="translate(-453.144 -258.391)" fill="#1e243a"/><path d="M687.438,339.209H673.9a1.092,1.092,0,0,1,0-2.184h13.542a1.092,1.092,0,1,1,0,2.184" transform="translate(-515.827 -258.391)" fill="#1e243a"/><path d="M730.065,401H716.959a1.092,1.092,0,0,1,0-2.184h13.106a1.092,1.092,0,0,1,0,2.184" transform="translate(-548.843 -305.763)" fill="#1e243a"/><path d="M63.648,360.429H46.028a1.092,1.092,0,0,1,0-2.184h17.62a1.092,1.092,0,0,1,0,2.184" transform="translate(-34.452 -274.66)" fill="#1e243a"/><path d="M169.042,360.429h-5.679a1.092,1.092,0,1,1,0-2.184h5.679a1.092,1.092,0,1,1,0,2.184" transform="translate(-124.41 -274.66)" fill="#1e243a"/><path d="M671.337,401h-3.058a1.092,1.092,0,0,1,0-2.184h3.058a1.092,1.092,0,1,1,0,2.184" transform="translate(-511.521 -305.763)" fill="#1e243a"/><path d="M540.374,548.914H527.851a1.092,1.092,0,0,1,0-2.184h12.523a1.092,1.092,0,0,1,0,2.184" transform="translate(-403.857 -419.169)" fill="#1e243a"/><path d="M667.584,579.513H588.076a5.9,5.9,0,0,1-5.9-5.9V522.357a5.9,5.9,0,0,1,5.9-5.9h79.507a5.9,5.9,0,0,1,5.9,5.9v51.258a5.9,5.9,0,0,1-5.9,5.9m-79.507-60.868a3.718,3.718,0,0,0-3.713,3.713v51.258a3.718,3.718,0,0,0,3.713,3.713h79.507a3.718,3.718,0,0,0,3.714-3.713V522.357a3.718,3.718,0,0,0-3.714-3.713Z" transform="translate(-446.347 -395.961)" fill="#1e243a"/><path d="M694.939,583.745H632.363a3.466,3.466,0,0,1-3.462-3.462V572.64a3.466,3.466,0,0,1,3.462-3.462h62.575a3.466,3.466,0,0,1,3.462,3.462v7.642a3.466,3.466,0,0,1-3.462,3.462m-62.575-12.382a1.28,1.28,0,0,0-1.278,1.278v7.642a1.28,1.28,0,0,0,1.278,1.278h62.575a1.28,1.28,0,0,0,1.278-1.278V572.64a1.28,1.28,0,0,0-1.278-1.278Z" transform="translate(-482.168 -436.379)" fill="#1e243a"/><path d="M635.885,583.945a1.092,1.092,0,0,1-.772-1.865l11.817-11.817a1.092,1.092,0,0,1,1.544,1.545l-11.817,11.817a1.089,1.089,0,0,1-.772.32" transform="translate(-486.685 -436.967)" fill="#1e243a"/><path d="M681.409,583.945a1.092,1.092,0,0,1-.772-1.865l11.817-11.817A1.092,1.092,0,0,1,694,571.808l-11.817,11.817a1.089,1.089,0,0,1-.772.32" transform="translate(-521.588 -436.967)" fill="#1e243a"/><path d="M726.932,583.945a1.092,1.092,0,0,1-.772-1.865l11.817-11.817a1.092,1.092,0,1,1,1.544,1.545L727.7,583.625a1.089,1.089,0,0,1-.772.32" transform="translate(-556.49 -436.967)" fill="#1e243a"/><path d="M772.455,583.945a1.092,1.092,0,0,1-.772-1.865L783.5,570.264a1.092,1.092,0,1,1,1.544,1.545l-11.817,11.817a1.089,1.089,0,0,1-.772.32" transform="translate(-591.391 -436.967)" fill="#1e243a"/><path d="M694.939,686.12H632.363a3.466,3.466,0,0,1-3.462-3.462v-7.642a3.466,3.466,0,0,1,3.462-3.462h62.575a3.466,3.466,0,0,1,3.462,3.462v7.642a3.466,3.466,0,0,1-3.462,3.462m-62.575-12.382a1.28,1.28,0,0,0-1.278,1.278v7.642a1.28,1.28,0,0,0,1.278,1.278h62.575a1.28,1.28,0,0,0,1.278-1.278v-7.642a1.279,1.279,0,0,0-1.278-1.278Z" transform="translate(-482.168 -514.869)" fill="#1e243a"/><path d="M635.319,686.831a1.092,1.092,0,0,1-.772-1.865l11.817-11.817a1.092,1.092,0,0,1,1.544,1.545l-11.817,11.817a1.088,1.088,0,0,1-.772.32" transform="translate(-486.251 -515.848)" fill="#1e243a"/><path d="M680.843,686.831a1.092,1.092,0,0,1-.772-1.865l11.817-11.817a1.092,1.092,0,1,1,1.544,1.545l-11.816,11.817a1.089,1.089,0,0,1-.772.32" transform="translate(-521.154 -515.848)" fill="#1e243a"/></g></g></g></svg>