<svg xmlns="http://www.w3.org/2000/svg" xmlns:xlink="http://www.w3.org/1999/xlink" width="250" height="190" viewBox="0 0 250 190"><defs><clipPath id="a"><rect width="245.939" height="182" fill="none"/></clipPath></defs><g transform="translate(-5649 13224)"><rect width="250" height="190" transform="translate(5649 -13224)" fill="none"/><g transform="translate(5651 -13220)"><path d="M665.857,71.994l89.508,1.267,1.548,117.361h18.53V53.183H665.857Z" transform="translate(-553.023 -29.664)" fill="#c5e8f6"/><path d="M714.409,25.238l88.115.863,1.144,115.969H824V4.631H714.409Z" transform="translate(-580.104 -2.583)" fill="#c5e8f6"/><g transform="translate(0)"><g clip-path="url(#a)"><path d="M133.823,558.21l-99.97-.155a8.38,8.38,0,0,0-7.774,4.741L4.631,611.678H113.588a2.914,2.914,0,0,0,2.7-1.646l20.872-47.417c.93-2.112-.8-4.4-3.334-4.4" transform="translate(-3.453 -430.734)" fill="#f7cb16"/></g></g><g transform="translate(0)"><g clip-path="url(#a)"><path d="M1.178,535.46A1.122,1.122,0,0,1,0,534.4v-71.56a5.215,5.215,0,0,1,5.468-4.9H29.017a3.7,3.7,0,0,1,3.879,3.476l.006,3.743h75.942a4.237,4.237,0,0,1,4.442,3.984v4.009a1.185,1.185,0,0,1-2.356,0v-4.009a1.99,1.99,0,0,0-2.086-1.871H31.726a1.122,1.122,0,0,1-1.178-1.055l-.007-4.8a1.454,1.454,0,0,0-1.523-1.366H5.468a2.968,2.968,0,0,0-3.112,2.791V534.4a1.122,1.122,0,0,1-1.178,1.057" transform="translate(0 -353.46)" fill="#1e243a"/><path d="M110.135,609.159H1.178A1.22,1.22,0,0,1,.2,608.7a.965.965,0,0,1-.123-.982L21.53,558.833a9.5,9.5,0,0,1,8.856-5.41H30.4l99.971.155a4.937,4.937,0,0,1,3.937,1.875,3.9,3.9,0,0,1,.49,3.974l-20.872,47.417a4.076,4.076,0,0,1-3.794,2.315M2.908,607.046H110.135a1.721,1.721,0,0,0,1.6-.978l20.872-47.417a1.951,1.951,0,0,0-.248-2.011,2.466,2.466,0,0,0-1.992-.949h0l-99.97-.155h-.013a7.151,7.151,0,0,0-6.663,4.071Z" transform="translate(0 -427.159)" fill="#1e243a"/><path d="M1.641,584.165a1.317,1.317,0,0,1-.244-.023,1.064,1.064,0,0,1-.909-1.252l13.292-56.5a7.394,7.394,0,0,1,7.363-5.347l103.971.159a4.347,4.347,0,0,1,3.283,1.435,3.436,3.436,0,0,1,.774,3.2l-1.053,3.89a1.191,1.191,0,0,1-1.423.777,1.056,1.056,0,0,1-.867-1.276l1.053-3.89a1.5,1.5,0,0,0-.338-1.4,1.9,1.9,0,0,0-1.433-.627l-103.971-.159h-.009a5.079,5.079,0,0,0-5.045,3.67l-13.292,56.5a1.157,1.157,0,0,1-1.152.839" transform="translate(-0.344 -402.165)" fill="#1e243a"/><path d="M35.991,714.821H31.616a1.214,1.214,0,0,1-1-.5.962.962,0,0,1-.05-1.028L39.229,697.8a1.244,1.244,0,0,1,1.581-.47,1.008,1.008,0,0,1,.525,1.418l-7.81,13.964h2.467a1.063,1.063,0,1,1,0,2.113" transform="translate(-22.695 -538.144)" fill="#1e243a"/><path d="M89.272,767.24H79.691a1.063,1.063,0,1,1,0-2.113h9.581a1.063,1.063,0,1,1,0,2.113" transform="translate(-58.542 -590.563)" fill="#1e243a"/><path d="M269.327,577.208h-.006l-23.881-.141a1.062,1.062,0,1,1,.006-2.113h.006l23.881.1a1.081,1.081,0,1,1-.006,2.153" transform="translate(-182.133 -443.778)" fill="#1e243a"/><path d="M387.558,577.684h-4.084a1.063,1.063,0,1,1,0-2.113h4.084a1.063,1.063,0,1,1,0,2.113" transform="translate(-285.051 -444.254)" fill="#1e243a"/><path d="M20.724,550.331a1.122,1.122,0,0,1-1.178-1.057v-10a1.185,1.185,0,0,1,2.356,0v10a1.122,1.122,0,0,1-1.178,1.057" transform="translate(-14.574 -415.422)" fill="#1e243a"/><path d="M20.724,487.49a1.122,1.122,0,0,1-1.178-1.057v-6.128a1.122,1.122,0,0,1,1.178-1.057h4.633a1.063,1.063,0,1,1,0,2.113H21.9v5.071a1.122,1.122,0,0,1-1.178,1.057" transform="translate(-14.574 -369.908)" fill="#1e243a"/><path d="M680.036,166.976H617a1.122,1.122,0,0,1-1.178-1.057V95.012A1.122,1.122,0,0,1,617,93.955h63.036a1.122,1.122,0,0,1,1.178,1.057v70.908a1.122,1.122,0,0,1-1.178,1.057m-61.858-2.113h60.68V96.068h-60.68Z" transform="translate(-459.175 -72.519)" fill="#1e243a"/><path d="M725.439,121.572H714.78a1.063,1.063,0,1,1,0-2.113h9.481V50.665h-60.68v8.649a1.185,1.185,0,0,1-2.356,0V49.609a1.122,1.122,0,0,1,1.178-1.057h63.035a1.122,1.122,0,0,1,1.178,1.057v70.907a1.122,1.122,0,0,1-1.178,1.057" transform="translate(-493.029 -37.475)" fill="#1e243a"/><path d="M773.992,73.02H762.3a1.063,1.063,0,1,1,0-2.113h10.515V2.113H712.135v9.575a1.185,1.185,0,0,1-2.356,0V1.057A1.122,1.122,0,0,1,710.957,0h63.035a1.122,1.122,0,0,1,1.178,1.057V71.964a1.122,1.122,0,0,1-1.178,1.057" transform="translate(-529.231)" fill="#1e243a"/><path d="M647.447,354.037H636.921a1.122,1.122,0,0,1-1.178-1.057V343.54a1.185,1.185,0,0,1,2.356,0v8.385h9.348a1.063,1.063,0,1,1,0,2.113" transform="translate(-474.028 -264.345)" fill="#1e243a"/><path d="M814.032,126.392a1.122,1.122,0,0,1-1.178-1.057v-8.385h-9.348a1.063,1.063,0,1,1,0-2.113h10.526a1.122,1.122,0,0,1,1.178,1.057v9.441a1.122,1.122,0,0,1-1.178,1.057" transform="translate(-598.239 -88.638)" fill="#1e243a"/><path d="M701.241,213.39h-41.15a1.063,1.063,0,1,1,0-2.113h41.15a1.063,1.063,0,1,1,0,2.113" transform="translate(-491.304 -163.074)" fill="#1e243a"/><path d="M701.241,187.457h-41.15a1.063,1.063,0,1,1,0-2.113h41.15a1.063,1.063,0,1,1,0,2.113" transform="translate(-491.304 -143.058)" fill="#1e243a"/><path d="M701.241,238.705h-41.15a1.063,1.063,0,1,1,0-2.113h41.15a1.063,1.063,0,1,1,0,2.113" transform="translate(-491.304 -182.613)" fill="#1e243a"/><path d="M701.241,263.4h-41.15a1.063,1.063,0,1,1,0-2.113h41.15a1.063,1.063,0,1,1,0,2.113" transform="translate(-491.304 -201.677)" fill="#1e243a"/><path d="M701.241,289.953h-41.15a1.063,1.063,0,1,1,0-2.113h41.15a1.063,1.063,0,1,1,0,2.113" transform="translate(-491.304 -222.169)" fill="#1e243a"/><path d="M680.823,315.886H660.091a1.063,1.063,0,1,1,0-2.113h20.732a1.063,1.063,0,1,1,0,2.113" transform="translate(-491.304 -242.186)" fill="#1e243a"/><path d="M262.146,465.455a1.122,1.122,0,0,1-1.178-1.057v-1.69a1.185,1.185,0,0,1,2.356,0v1.69a1.122,1.122,0,0,1-1.178,1.057" transform="translate(-194.585 -356.326)" fill="#1e243a"/><path d="M262.146,329.986a1.122,1.122,0,0,1-1.178-1.057v-3.381a1.185,1.185,0,0,1,2.356,0v3.381a1.122,1.122,0,0,1-1.178,1.057m0-9.438a1.122,1.122,0,0,1-1.178-1.057V316.11a1.185,1.185,0,0,1,2.356,0v3.381a1.122,1.122,0,0,1-1.178,1.057m0-9.438a1.122,1.122,0,0,1-1.178-1.057v-3.381a1.185,1.185,0,0,1,2.356,0v3.381a1.122,1.122,0,0,1-1.178,1.057m0-9.438a1.122,1.122,0,0,1-1.178-1.057v-3.381a1.185,1.185,0,0,1,2.356,0v3.381a1.122,1.122,0,0,1-1.178,1.057" transform="translate(-194.585 -228.604)" fill="#1e243a"/><path d="M262.146,265.782a1.122,1.122,0,0,1-1.178-1.056v-1.761a1.122,1.122,0,0,1,1.178-1.057h1.963a1.063,1.063,0,1,1,0,2.113h-.785v.7a1.122,1.122,0,0,1-1.178,1.056" transform="translate(-194.585 -202.154)" fill="#1e243a"/><path d="M356.548,264.02h-3.927a1.063,1.063,0,1,1,0-2.113h3.927a1.063,1.063,0,1,1,0,2.113m-10.994,0h-3.926a1.063,1.063,0,1,1,0-2.113h3.926a1.063,1.063,0,1,1,0,2.113m-10.994,0h-3.926a1.063,1.063,0,1,1,0-2.113h3.926a1.063,1.063,0,1,1,0,2.113m-10.994,0h-3.927a1.063,1.063,0,1,1,0-2.113h3.927a1.063,1.063,0,1,1,0,2.113m-10.995,0h-3.926a1.063,1.063,0,1,1,0-2.113h3.926a1.063,1.063,0,1,1,0,2.113m-10.994,0H297.65a1.063,1.063,0,1,1,0-2.113h3.926a1.063,1.063,0,1,1,0,2.113" transform="translate(-221.058 -202.153)" fill="#1e243a"/><path d="M555.932,264.02H553.89a1.063,1.063,0,1,1,0-2.113h2.042a1.063,1.063,0,1,1,0,2.113" transform="translate(-412.118 -202.153)" fill="#1e243a"/><path d="M864.775,441.516a1.122,1.122,0,0,1-1.178-1.057v-1.831a1.185,1.185,0,0,1,2.356,0v1.831a1.122,1.122,0,0,1-1.178,1.057" transform="translate(-643.922 -337.739)" fill="#1e243a"/><path d="M864.775,518.462a1.122,1.122,0,0,1-1.178-1.057v-3.522a1.185,1.185,0,0,1,2.356,0v3.522a1.122,1.122,0,0,1-1.178,1.057m0-9.861a1.122,1.122,0,0,1-1.178-1.057v-3.522a1.185,1.185,0,0,1,2.356,0v3.522a1.122,1.122,0,0,1-1.178,1.057m0-9.861a1.122,1.122,0,0,1-1.178-1.057v-3.522a1.185,1.185,0,0,1,2.356,0v3.522a1.123,1.123,0,0,1-1.178,1.057m0-9.861a1.122,1.122,0,0,1-1.178-1.057V484.3a1.185,1.185,0,0,1,2.356,0v3.522a1.122,1.122,0,0,1-1.178,1.057m0-9.861a1.122,1.122,0,0,1-1.178-1.057v-3.522a1.185,1.185,0,0,1,2.356,0v3.522a1.122,1.122,0,0,1-1.178,1.057" transform="translate(-643.922 -365.38)" fill="#1e243a"/><path d="M859.02,693.981h-1.963a1.063,1.063,0,1,1,0-2.113h.785v-.7a1.185,1.185,0,0,1,2.356,0v1.761a1.122,1.122,0,0,1-1.178,1.057" transform="translate(-638.168 -532.659)" fill="#1e243a"/><path d="M627.78,699.938h-3.927a1.063,1.063,0,1,1,0-2.113h3.927a1.063,1.063,0,1,1,0,2.113m-10.837,0h-3.927a1.063,1.063,0,1,1,0-2.113h3.927a1.063,1.063,0,1,1,0,2.113m-10.837,0h-3.926a1.063,1.063,0,1,1,0-2.113h3.926a1.063,1.063,0,1,1,0,2.113m-10.837,0h-3.927a1.063,1.063,0,1,1,0-2.113h3.927a1.063,1.063,0,1,1,0,2.113m-10.837,0H580.5a1.063,1.063,0,1,1,0-2.113h3.926a1.063,1.063,0,1,1,0,2.113m-10.837,0h-3.926a1.063,1.063,0,1,1,0-2.113h3.926a1.063,1.063,0,1,1,0,2.113m-10.837,0H558.83a1.063,1.063,0,1,1,0-2.113h3.927a1.063,1.063,0,1,1,0,2.113" transform="translate(-415.801 -538.616)" fill="#1e243a"/><path d="M524.9,699.938h-1.885a1.063,1.063,0,1,1,0-2.113H524.9a1.063,1.063,0,1,1,0,2.113" transform="translate(-389.099 -538.616)" fill="#1e243a"/><path d="M25.034,21.607a1.351,1.351,0,0,1-.759-1.874,1.651,1.651,0,0,1,2.087-.679,1.349,1.349,0,0,1,.759,1.872,1.6,1.6,0,0,1-1.425.813,1.716,1.716,0,0,1-.663-.132m4.572-.713A1.346,1.346,0,0,1,30.3,19a1.66,1.66,0,0,1,2.109.626,1.345,1.345,0,0,1-.7,1.892,1.7,1.7,0,0,1-.7.15,1.6,1.6,0,0,1-1.406-.776M20.816,16.96h0a1.41,1.41,0,0,1,1.167-1.695,1.585,1.585,0,0,1,1.889,1.048,1.409,1.409,0,0,1-1.167,1.695,1.778,1.778,0,0,1-.363.038,1.548,1.548,0,0,1-1.526-1.086m13.113.9A1.42,1.42,0,0,1,32.705,16.2a1.575,1.575,0,0,1,1.855-1.1,1.42,1.42,0,0,1,1.222,1.664,1.537,1.537,0,0,1-1.536,1.124,1.713,1.713,0,0,1-.317-.028M22.52,13.09a1.313,1.313,0,0,1-.256-1.979,1.7,1.7,0,0,1,2.207-.23,1.314,1.314,0,0,1,.256,1.979,1.644,1.644,0,0,1-1.233.534,1.679,1.679,0,0,1-.974-.3m9.221-.321h0a1.311,1.311,0,0,1,.192-1.985,1.7,1.7,0,0,1,2.213.173,1.311,1.311,0,0,1-.192,1.985,1.685,1.685,0,0,1-1.01.329,1.65,1.65,0,0,1-1.2-.5M26.7,9.91a1.58,1.58,0,0,1,3.141,0,1.58,1.58,0,0,1-3.141,0" transform="translate(-15.489 -6.562)" fill="#1e243a"/><path d="M377.751,172.949a1.35,1.35,0,0,1-.759-1.872,1.65,1.65,0,0,1,2.087-.68,1.35,1.35,0,0,1,.759,1.872,1.592,1.592,0,0,1-1.425.813,1.716,1.716,0,0,1-.663-.132m4.572-.713a1.344,1.344,0,0,1,.7-1.891,1.658,1.658,0,0,1,2.109.626,1.344,1.344,0,0,1-.7,1.89,1.7,1.7,0,0,1-.705.151,1.6,1.6,0,0,1-1.4-.776m-8.791-3.933a1.409,1.409,0,0,1,1.167-1.695,1.585,1.585,0,0,1,1.89,1.047,1.41,1.41,0,0,1-1.167,1.695,1.767,1.767,0,0,1-.363.038,1.547,1.547,0,0,1-1.526-1.085m13.112.9a1.419,1.419,0,0,1-1.222-1.664,1.576,1.576,0,0,1,1.855-1.1,1.42,1.42,0,0,1,1.222,1.664,1.539,1.539,0,0,1-1.536,1.125,1.767,1.767,0,0,1-.319-.029m-11.408-4.77a1.313,1.313,0,0,1-.256-1.979,1.693,1.693,0,0,1,2.205-.23,1.312,1.312,0,0,1,.257,1.978,1.641,1.641,0,0,1-1.233.535,1.689,1.689,0,0,1-.974-.3m9.221-.323h0a1.312,1.312,0,0,1,.192-1.985,1.7,1.7,0,0,1,2.213.173,1.31,1.31,0,0,1-.192,1.985,1.683,1.683,0,0,1-1.01.33,1.645,1.645,0,0,1-1.2-.5m-5.037-2.858a1.58,1.58,0,1,1,1.57,1.409,1.5,1.5,0,0,1-1.57-1.409" transform="translate(-278.485 -123.375)" fill="#1e243a"/><path d="M656.527,541.028a1.352,1.352,0,0,1-.759-1.872,1.652,1.652,0,0,1,2.089-.68,1.352,1.352,0,0,1,.759,1.872,1.594,1.594,0,0,1-1.425.813,1.717,1.717,0,0,1-.664-.132m4.573-.713a1.343,1.343,0,0,1,.7-1.89,1.658,1.658,0,0,1,2.109.626,1.344,1.344,0,0,1-.7,1.89,1.707,1.707,0,0,1-.705.151,1.6,1.6,0,0,1-1.4-.776m-8.79-3.933h0a1.408,1.408,0,0,1,1.167-1.695,1.586,1.586,0,0,1,1.89,1.047,1.41,1.41,0,0,1-1.167,1.695,1.793,1.793,0,0,1-.363.038,1.545,1.545,0,0,1-1.527-1.085m13.112.9a1.418,1.418,0,0,1-1.222-1.662,1.574,1.574,0,0,1,1.853-1.1,1.422,1.422,0,0,1,1.224,1.664,1.541,1.541,0,0,1-1.538,1.126,1.756,1.756,0,0,1-.317-.03m-11.408-4.77a1.313,1.313,0,0,1-.258-1.979,1.7,1.7,0,0,1,2.207-.23,1.312,1.312,0,0,1,.256,1.978,1.636,1.636,0,0,1-1.231.535,1.682,1.682,0,0,1-.974-.3m9.219-.323a1.31,1.31,0,0,1,.193-1.983,1.7,1.7,0,0,1,2.213.172,1.311,1.311,0,0,1-.193,1.985,1.674,1.674,0,0,1-1.008.33,1.645,1.645,0,0,1-1.2-.5m-5.035-2.858a1.58,1.58,0,1,1,1.57,1.409,1.5,1.5,0,0,1-1.57-1.409" transform="translate(-486.349 -407.477)" fill="#1e243a"/><path d="M153,346.952a1.35,1.35,0,0,1-.759-1.872,1.65,1.65,0,0,1,2.087-.68,1.349,1.349,0,0,1,.759,1.872,1.6,1.6,0,0,1-1.425.813,1.715,1.715,0,0,1-.663-.132m4.572-.713a1.345,1.345,0,0,1,.7-1.892,1.66,1.66,0,0,1,2.109.625,1.345,1.345,0,0,1-.7,1.892,1.729,1.729,0,0,1-.705.151,1.6,1.6,0,0,1-1.4-.776m-8.791-3.934a1.411,1.411,0,0,1,1.167-1.695,1.585,1.585,0,0,1,1.889,1.048,1.41,1.41,0,0,1-1.167,1.695,1.778,1.778,0,0,1-.363.038,1.547,1.547,0,0,1-1.526-1.086m13.112.9a1.42,1.42,0,0,1-1.222-1.664,1.575,1.575,0,0,1,1.855-1.1,1.42,1.42,0,0,1,1.222,1.664,1.539,1.539,0,0,1-1.536,1.124,1.77,1.77,0,0,1-.319-.028m-11.407-4.771a1.313,1.313,0,0,1-.256-1.979,1.693,1.693,0,0,1,2.205-.23,1.314,1.314,0,0,1,.257,1.979,1.644,1.644,0,0,1-1.233.534,1.679,1.679,0,0,1-.974-.3m9.221-.321a1.31,1.31,0,0,1,.192-1.985,1.7,1.7,0,0,1,2.213.173,1.311,1.311,0,0,1-.192,1.983,1.675,1.675,0,0,1-1.01.331,1.647,1.647,0,0,1-1.2-.5m-5.037-2.858a1.58,1.58,0,1,1,1.571,1.409,1.5,1.5,0,0,1-1.571-1.409" transform="translate(-110.904 -257.68)" fill="#1e243a"/><path d="M26.281,198.038a1.122,1.122,0,0,1-1.178-1.057V189.8a1.185,1.185,0,0,1,2.356,0v7.184a1.122,1.122,0,0,1-1.178,1.057" transform="translate(-18.718 -145.679)" fill="#1e243a"/><path d="M18.546,206.6h-8.01a1.063,1.063,0,1,1,0-2.113h8.01a1.063,1.063,0,1,1,0,2.113" transform="translate(-6.978 -157.832)" fill="#1e243a"/><path d="M562.226,51.7a1.122,1.122,0,0,1-1.178-1.057V43.462a1.185,1.185,0,0,1,2.356,0v7.184a1.122,1.122,0,0,1-1.178,1.057" transform="translate(-418.333 -32.73)" fill="#1e243a"/><path d="M554.491,60.263h-8.01a1.063,1.063,0,1,1,0-2.113h8.01a1.063,1.063,0,1,1,0,2.113" transform="translate(-406.593 -44.883)" fill="#1e243a"/><path d="M922.815,745.713a1.122,1.122,0,0,1-1.178-1.057v-7.184a1.185,1.185,0,0,1,2.356,0v7.184a1.122,1.122,0,0,1-1.178,1.057" transform="translate(-687.199 -568.402)" fill="#1e243a"/><path d="M915.08,754.274h-8.01a1.063,1.063,0,1,1,0-2.113h8.01a1.063,1.063,0,1,1,0,2.113" transform="translate(-675.459 -580.555)" fill="#1e243a"/><path d="M375.757,340.668a1.122,1.122,0,0,1-1.178-1.057v-7.184a1.185,1.185,0,0,1,2.356,0v7.184a1.122,1.122,0,0,1-1.178,1.057" transform="translate(-279.297 -255.768)" fill="#1e243a"/><path d="M368.022,349.228h-8.01a1.063,1.063,0,1,1,0-2.113h8.01a1.063,1.063,0,1,1,0,2.113" transform="translate(-267.557 -267.921)" fill="#1e243a"/><path d="M218.925,41.823a1.122,1.122,0,0,1-1.178-1.057V33.582a1.185,1.185,0,0,1,2.356,0v7.184a1.122,1.122,0,0,1-1.178,1.057" transform="translate(-162.358 -25.105)" fill="#1e243a"/><path d="M211.19,50.384h-8.01a1.063,1.063,0,1,1,0-2.113h8.01a1.063,1.063,0,1,1,0,2.113" transform="translate(-150.618 -37.258)" fill="#1e243a"/></g></g></g></g></svg>